<svg width="2660" height="1943" viewBox="0 0 2660 1943" fill="none" xmlns="http://www.w3.org/2000/svg">
<g filter="url(#filter0_f_305_2)">
<path d="M1531.25 1096.53C1171.3 1296.41 807.866 1674.71 661.253 1692.03C398.753 1723.03 437.141 1005.82 714.753 749.526C975.253 509.026 2783.48 262.816 2339.75 749.526C2103.68 1008.46 1837.59 926.417 1531.25 1096.53Z" fill="#280075"/>
</g>
<g filter="url(#filter1_f_305_2)">
<path d="M1347.25 927.525C987.302 1127.41 623.866 1505.71 477.253 1523.03C214.753 1554.03 253.141 836.824 530.753 580.526C791.253 340.026 2599.48 93.8157 2155.75 580.526C1919.68 839.464 1653.59 757.417 1347.25 927.525Z" fill="#CF00A3"/>
</g>
<g filter="url(#filter2_f_305_2)">
<path d="M1487.46 562.516C1567.28 647.7 1082.98 1202.56 774.221 1408.59C465.459 1614.62 489.652 1129.41 749.594 882.573C965.95 677.127 1407.64 477.331 1487.46 562.516Z" fill="#FF8993"/>
<path d="M1487.46 562.516C1567.28 647.7 1082.98 1202.56 774.221 1408.59C465.459 1614.62 489.652 1129.41 749.594 882.573C965.95 677.127 1407.64 477.331 1487.46 562.516Z" stroke="#FF1D74" stroke-width="40"/>
</g>
<defs>
<filter id="filter0_f_305_2" x="234" y="219.406" width="2425.51" height="1723.59" filterUnits="userSpaceOnUse" color-interpolation-filters="sRGB">
<feFlood flood-opacity="0" result="BackgroundImageFix"/>
<feBlend mode="normal" in="SourceGraphic" in2="BackgroundImageFix" result="shape"/>
<feGaussianBlur stdDeviation="125" result="effect1_foregroundBlur_305_2"/>
</filter>
<filter id="filter1_f_305_2" x="0" y="0.405518" width="2525.51" height="1823.59" filterUnits="userSpaceOnUse" color-interpolation-filters="sRGB">
<feFlood flood-opacity="0" result="BackgroundImageFix"/>
<feBlend mode="normal" in="SourceGraphic" in2="BackgroundImageFix" result="shape"/>
<feGaussianBlur stdDeviation="150" result="effect1_foregroundBlur_305_2"/>
</filter>
<filter id="filter2_f_305_2" x="378.644" y="372.366" width="1287.56" height="1255.98" filterUnits="userSpaceOnUse" color-interpolation-filters="sRGB">
<feFlood flood-opacity="0" result="BackgroundImageFix"/>
<feBlend mode="normal" in="SourceGraphic" in2="BackgroundImageFix" result="shape"/>
<feGaussianBlur stdDeviation="75" result="effect1_foregroundBlur_305_2"/>
</filter>
</defs>
</svg>
