<svg width="137" height="52" viewBox="0 0 137 52" fill="none" xmlns="http://www.w3.org/2000/svg">
<path d="M55.9383 48.144C55.5436 48.144 55.261 48.0853 55.0903 47.968C54.9303 47.8507 54.829 47.696 54.7863 47.504C54.7436 47.312 54.7223 47.1147 54.7223 46.912V38.176C54.7223 37.9627 54.7436 37.7653 54.7863 37.584C54.829 37.4027 54.9356 37.2533 55.1063 37.136C55.277 37.0187 55.5596 36.96 55.9543 36.96C56.349 36.96 56.6263 37.0187 56.7863 37.136C56.957 37.2533 57.0583 37.4027 57.0903 37.584C57.133 37.7653 57.1543 37.968 57.1543 38.192V46.928C57.1543 47.1307 57.133 47.328 57.0903 47.52C57.0583 47.7013 56.957 47.8507 56.7863 47.968C56.6156 48.0853 56.333 48.144 55.9383 48.144ZM49.1543 48.144C48.7596 48.144 48.477 48.0853 48.3063 47.968C48.1356 47.8507 48.029 47.696 47.9863 47.504C47.9543 47.312 47.9383 47.1147 47.9383 46.912V38.176C47.9383 37.9627 47.9596 37.7653 48.0023 37.584C48.045 37.4027 48.1463 37.2533 48.3063 37.136C48.477 37.0187 48.765 36.96 49.1703 36.96C49.565 36.96 49.8423 37.0187 50.0023 37.136C50.173 37.2533 50.2743 37.4027 50.3063 37.584C50.349 37.7653 50.3703 37.968 50.3703 38.192V46.928C50.3703 47.1307 50.349 47.328 50.3063 47.52C50.2743 47.7013 50.173 47.8507 50.0023 47.968C49.8316 48.0853 49.549 48.144 49.1543 48.144ZM49.9863 43.568V41.456H54.9783V43.568H49.9863ZM62.5641 48.144C62.1801 48.144 61.9027 48.0907 61.7321 47.984C61.5614 47.8667 61.4547 47.712 61.4121 47.52C61.3801 47.328 61.3641 47.1307 61.3641 46.928V38.176C61.3641 37.9627 61.3801 37.7653 61.4121 37.584C61.4547 37.4027 61.5614 37.2533 61.7321 37.136C61.9027 37.0187 62.1854 36.96 62.5801 36.96C62.9854 36.96 63.2681 37.0187 63.4281 37.136C63.5987 37.2533 63.7001 37.4027 63.7321 37.584C63.7747 37.7653 63.7961 37.968 63.7961 38.192V46.944C63.7961 47.1467 63.7747 47.344 63.7321 47.536C63.6894 47.7173 63.5827 47.8667 63.4121 47.984C63.2521 48.0907 62.9694 48.144 62.5641 48.144ZM69.3068 48.144C68.9228 48.144 68.6455 48.0853 68.4748 47.968C68.3041 47.8507 68.1975 47.696 68.1548 47.504C68.1228 47.312 68.1068 47.1147 68.1068 46.912V38.16C68.1068 37.9573 68.1228 37.7653 68.1548 37.584C68.1975 37.4027 68.3041 37.2533 68.4748 37.136C68.6455 37.0187 68.9281 36.96 69.3228 36.96H72.6508C73.0881 36.96 73.5361 37.04 73.9948 37.2C74.4535 37.36 74.8748 37.6053 75.2588 37.936C75.6428 38.2667 75.9521 38.6773 76.1868 39.168C76.4215 39.6587 76.5388 40.24 76.5388 40.912C76.5388 41.36 76.4695 41.792 76.3308 42.208C76.2028 42.624 76.0055 43.008 75.7388 43.36C75.4721 43.712 75.1415 44.016 74.7468 44.272C74.3521 44.5173 73.8988 44.6933 73.3868 44.8H70.5388V46.928C70.5388 47.1307 70.5175 47.328 70.4748 47.52C70.4321 47.7013 70.3255 47.8507 70.1548 47.968C69.9841 48.0853 69.7015 48.144 69.3068 48.144ZM76.0588 47.824C75.6641 48.112 75.3495 48.224 75.1148 48.16C74.8801 48.096 74.6348 47.888 74.3788 47.536L71.5628 43.504L74.2988 43.152L76.3628 46.112C76.5441 46.368 76.6561 46.5867 76.6988 46.768C76.7521 46.9493 76.7255 47.12 76.6188 47.28C76.5228 47.44 76.3361 47.6213 76.0588 47.824ZM70.5388 42.4H72.7628C72.9121 42.4 73.0668 42.3733 73.2268 42.32C73.3868 42.256 73.5308 42.1653 73.6588 42.048C73.7868 41.9307 73.8935 41.776 73.9788 41.584C74.0641 41.392 74.1068 41.1627 74.1068 40.896C74.1068 40.5867 74.0428 40.32 73.9148 40.096C73.7975 39.872 73.6268 39.7013 73.4028 39.584C73.1788 39.456 72.9175 39.392 72.6188 39.392H70.5388V42.4ZM82.0001 48.144C81.6161 48.144 81.3387 48.0907 81.1681 47.984C80.9974 47.8667 80.8907 47.712 80.8481 47.52C80.8161 47.328 80.8001 47.1307 80.8001 46.928V38.176C80.8001 37.7067 80.8907 37.3867 81.0721 37.216C81.2534 37.0453 81.5787 36.96 82.0481 36.96H88.0961C88.3094 36.96 88.5067 36.9813 88.6881 37.024C88.8694 37.056 89.0187 37.1573 89.1361 37.328C89.2534 37.4987 89.3121 37.7867 89.3121 38.192C89.3121 38.576 89.2534 38.8533 89.1361 39.024C89.0187 39.1947 88.8641 39.3013 88.6721 39.344C88.4907 39.376 88.2934 39.392 88.0801 39.392H83.2321V41.456H86.5281C86.7414 41.456 86.9281 41.472 87.0881 41.504C87.2587 41.536 87.3921 41.6267 87.4881 41.776C87.5841 41.9253 87.6321 42.176 87.6321 42.528C87.6321 42.8587 87.5841 43.0987 87.4881 43.248C87.3921 43.3973 87.2587 43.488 87.0881 43.52C86.9174 43.552 86.7201 43.568 86.4961 43.568H83.2321V45.712H88.0961C88.3094 45.712 88.5067 45.7333 88.6881 45.776C88.8694 45.8187 89.0187 45.9253 89.1361 46.096C89.2534 46.256 89.3121 46.5387 89.3121 46.944C89.3121 47.328 89.2534 47.6053 89.1361 47.776C89.0187 47.9467 88.8641 48.048 88.6721 48.08C88.4907 48.1227 88.2934 48.144 88.0801 48.144H82.0001Z" fill="#111827"/>
<g filter="url(#filter0_d_3_29)">
<path d="M6.32513 31.32C5.89846 31.32 5.57846 31.256 5.36513 31.128C5.17313 31.0213 5.04513 30.8613 4.98113 30.648C4.91713 30.4133 4.88513 30.1467 4.88513 29.848V10.424C4.88513 9.86933 4.99179 9.496 5.20513 9.304C5.43979 9.09067 5.84513 8.984 6.42113 8.984H19.2851C19.5838 8.984 19.8291 9.016 20.0211 9.08C20.2345 9.144 20.3945 9.28267 20.5011 9.496C20.6078 9.70933 20.6611 10.0293 20.6611 10.456C20.6611 10.8827 20.5971 11.2027 20.4691 11.416C20.3625 11.608 20.2025 11.736 19.9891 11.8C19.7758 11.864 19.5198 11.896 19.2211 11.896H7.76513V18.52H15.7331C16.0318 18.52 16.2771 18.552 16.4691 18.616C16.6825 18.68 16.8425 18.808 16.9491 19C17.0558 19.192 17.1091 19.4907 17.1091 19.896C17.1091 20.28 17.0558 20.568 16.9491 20.76C16.8425 20.952 16.6825 21.08 16.4691 21.144C16.2771 21.1867 16.0211 21.208 15.7011 21.208H7.76513V29.88C7.76513 30.1787 7.73313 30.4347 7.66913 30.648C7.60513 30.8613 7.46646 31.0213 7.25313 31.128C7.06113 31.256 6.75179 31.32 6.32513 31.32ZM24.1584 31.32C23.753 31.32 23.4437 31.256 23.2304 31.128C23.0384 31.0213 22.9104 30.8613 22.8464 30.648C22.8037 30.4133 22.7824 30.1467 22.7824 29.848V17.24C22.7824 16.92 22.8144 16.6533 22.8784 16.44C22.9424 16.2267 23.0704 16.0773 23.2624 15.992C23.4544 15.8853 23.7637 15.832 24.1904 15.832C24.5744 15.832 24.8624 15.8853 25.0544 15.992C25.2677 16.0773 25.4064 16.216 25.4704 16.408C25.5557 16.5787 25.5984 16.7813 25.5984 17.016L25.4704 17.976C25.6197 17.6987 25.7904 17.4213 25.9824 17.144C26.1957 16.8667 26.4517 16.6213 26.7504 16.408C27.0704 16.1733 27.4437 15.9813 27.8704 15.832C28.3184 15.6827 28.8624 15.608 29.5024 15.608C29.8224 15.608 30.121 15.64 30.3984 15.704C30.697 15.7467 30.9744 15.8213 31.2304 15.928C31.5077 16.0347 31.7424 16.1627 31.9344 16.312C32.1264 16.44 32.2757 16.5893 32.3824 16.76C32.5104 16.9093 32.5744 17.0907 32.5744 17.304C32.5744 17.7733 32.425 18.1787 32.1264 18.52C31.8277 18.84 31.5184 19 31.1984 19C30.921 19 30.7184 18.968 30.5904 18.904C30.4624 18.8187 30.3344 18.7333 30.2064 18.648C30.0997 18.5627 29.9397 18.488 29.7264 18.424C29.513 18.3387 29.1717 18.296 28.7024 18.296C28.3824 18.296 28.041 18.36 27.6784 18.488C27.337 18.616 27.0064 18.808 26.6864 19.064C26.3664 19.2987 26.0997 19.608 25.8864 19.992C25.6944 20.376 25.5984 20.824 25.5984 21.336V29.912C25.5984 30.2107 25.5664 30.4667 25.5024 30.68C25.4384 30.8933 25.2997 31.0533 25.0864 31.16C24.8944 31.2667 24.585 31.32 24.1584 31.32ZM42.2896 31.512C41.2443 31.512 40.2416 31.3093 39.2816 30.904C38.343 30.4987 37.5003 29.944 36.7536 29.24C36.007 28.5147 35.4203 27.672 34.9936 26.712C34.567 25.752 34.3536 24.7067 34.3536 23.576C34.3536 22.4667 34.5563 21.4427 34.9616 20.504C35.367 19.544 35.9323 18.7013 36.6576 17.976C37.383 17.2507 38.215 16.6853 39.1536 16.28C40.1136 15.8533 41.1376 15.64 42.2256 15.64C43.6976 15.64 45.0203 15.992 46.1936 16.696C47.3883 17.3787 48.3376 18.3173 49.0416 19.512C49.7456 20.7067 50.0976 22.0507 50.0976 23.544C50.0976 24.7173 49.8843 25.7947 49.4576 26.776C49.031 27.736 48.455 28.568 47.7296 29.272C47.0043 29.976 46.1723 30.5307 45.2336 30.936C44.295 31.32 43.3136 31.512 42.2896 31.512ZM42.2256 28.728C43.1216 28.728 43.9536 28.504 44.7216 28.056C45.4896 27.608 46.1083 26.9893 46.5776 26.2C47.047 25.4107 47.2816 24.5147 47.2816 23.512C47.2816 22.5093 47.0576 21.624 46.6096 20.856C46.183 20.088 45.5856 19.4907 44.8176 19.064C44.0496 18.6373 43.175 18.424 42.1936 18.424C41.255 18.424 40.4016 18.648 39.6336 19.096C38.887 19.544 38.279 20.152 37.8096 20.92C37.3616 21.688 37.1376 22.5627 37.1376 23.544C37.1376 24.568 37.3723 25.4747 37.8416 26.264C38.311 27.032 38.9296 27.64 39.6976 28.088C40.487 28.5147 41.3296 28.728 42.2256 28.728ZM54.5959 31.288C54.1905 31.288 53.8812 31.224 53.6679 31.096C53.4759 30.9893 53.3479 30.8293 53.2839 30.616C53.2412 30.4027 53.2199 30.1467 53.2199 29.848V17.144C53.2199 16.8667 53.2519 16.632 53.3159 16.44C53.3799 16.248 53.5079 16.0987 53.6999 15.992C53.9132 15.8853 54.2225 15.832 54.6279 15.832C54.9479 15.832 55.1932 15.8747 55.3639 15.96C55.5559 16.024 55.6839 16.12 55.7479 16.248C55.8332 16.376 55.8865 16.5147 55.9079 16.664C55.9292 16.8133 55.9399 16.952 55.9399 17.08L55.8759 18.552C56.0892 18.1893 56.3559 17.848 56.6759 17.528C56.9959 17.1867 57.3692 16.888 57.7959 16.632C58.2225 16.3547 58.6812 16.1413 59.1719 15.992C59.6839 15.8427 60.2279 15.768 60.8039 15.768C61.7425 15.768 62.6065 15.9387 63.3959 16.28C64.1852 16.6 64.8572 17.08 65.4119 17.72C65.9879 18.3387 66.4252 19.0853 66.7239 19.96C67.0439 20.8347 67.2039 21.8267 67.2039 22.936V29.88C67.2039 30.1787 67.1719 30.4347 67.1079 30.648C67.0652 30.8613 66.9372 31.0213 66.7239 31.128C66.5319 31.2347 66.2332 31.288 65.8279 31.288C65.4012 31.288 65.0812 31.224 64.8679 31.096C64.6759 30.9893 64.5479 30.8293 64.4839 30.616C64.4199 30.4027 64.3879 30.1467 64.3879 29.848V22.904C64.3879 22.008 64.2385 21.2293 63.9399 20.568C63.6412 19.9067 63.1932 19.3947 62.5959 19.032C61.9985 18.648 61.2412 18.456 60.3239 18.456C59.4492 18.456 58.6812 18.648 58.0199 19.032C57.3799 19.3947 56.8785 19.9067 56.5159 20.568C56.1745 21.2293 56.0039 22.008 56.0039 22.904V29.88C56.0039 30.1787 55.9719 30.4347 55.9079 30.648C55.8439 30.8613 55.7052 31.0213 55.4919 31.128C55.2999 31.2347 55.0012 31.288 54.5959 31.288ZM77.9839 31.32C76.9812 31.32 76.1279 31.224 75.4239 31.032C74.7412 30.84 74.1759 30.5413 73.7279 30.136C73.2799 29.7307 72.9599 29.208 72.7679 28.568C72.5759 27.9067 72.4799 27.096 72.4799 26.136V11.992C72.4799 11.6933 72.5119 11.4373 72.5759 11.224C72.6399 11.0107 72.7679 10.8507 72.9599 10.744C73.1519 10.616 73.4505 10.552 73.8559 10.552C74.2612 10.552 74.5705 10.616 74.7839 10.744C74.9972 10.8507 75.1359 11.0107 75.1999 11.224C75.2639 11.416 75.2959 11.6613 75.2959 11.96V26.136C75.2959 26.6907 75.3385 27.1387 75.4239 27.48C75.5305 27.8 75.6799 28.0453 75.8719 28.216C76.0852 28.3867 76.3625 28.4933 76.7039 28.536C77.0452 28.5787 77.4612 28.6 77.9519 28.6C78.2932 28.6 78.5705 28.632 78.7839 28.696C78.9972 28.76 79.1572 28.888 79.2639 29.08C79.3705 29.272 79.4239 29.56 79.4239 29.944C79.4239 30.3493 79.3599 30.6587 79.2319 30.872C79.1252 31.064 78.9545 31.1813 78.7199 31.224C78.5065 31.288 78.2612 31.32 77.9839 31.32ZM70.8159 16.184L73.8879 16.216L78.3359 16.152C78.6345 16.152 78.8905 16.184 79.1039 16.248C79.3172 16.2907 79.4772 16.4187 79.5839 16.632C79.7119 16.824 79.7759 17.1227 79.7759 17.528C79.7759 17.9333 79.7225 18.2427 79.6159 18.456C79.5092 18.648 79.3492 18.776 79.1359 18.84C78.9225 18.904 78.6665 18.936 78.3679 18.936L73.9839 18.872L70.7519 18.904C70.3039 18.904 69.9945 18.7973 69.8239 18.584C69.6745 18.3707 69.5999 18.0187 69.5999 17.528C69.5999 17.0587 69.6959 16.7173 69.8879 16.504C70.0799 16.2907 70.3892 16.184 70.8159 16.184ZM90.0151 31.48C88.7351 31.48 87.5938 31.2667 86.5911 30.84C85.5885 30.4133 84.7351 29.8373 84.0311 29.112C83.3485 28.3653 82.8258 27.512 82.4631 26.552C82.1005 25.592 81.9191 24.5573 81.9191 23.448C81.9191 21.976 82.2605 20.664 82.9431 19.512C83.6258 18.36 84.5645 17.4533 85.7591 16.792C86.9751 16.1093 88.3618 15.768 89.9191 15.768C90.9858 15.768 91.9351 15.9387 92.7671 16.28C93.6205 16.6 94.3458 17.0373 94.9431 17.592C95.5405 18.1467 95.9991 18.7653 96.3191 19.448C96.6391 20.1307 96.7991 20.8133 96.7991 21.496C96.7991 22.584 96.5431 23.352 96.0311 23.8C95.5191 24.2267 94.8898 24.44 94.1431 24.44H84.8951C84.8738 25.3787 85.1191 26.1893 85.6311 26.872C86.1645 27.5333 86.8258 28.0453 87.6151 28.408C88.4258 28.7707 89.2365 28.952 90.0471 28.952C90.6445 28.952 91.1565 28.92 91.5831 28.856C92.0098 28.792 92.3831 28.7067 92.7031 28.6C93.0231 28.4933 93.3005 28.3867 93.5351 28.28C93.7698 28.1733 93.9725 28.0667 94.1431 27.96C94.3351 27.8533 94.5165 27.7787 94.6871 27.736C94.8791 27.6933 95.0605 27.7147 95.2311 27.8C95.4231 27.864 95.5725 28.0027 95.6791 28.216C95.8071 28.3867 95.8925 28.5467 95.9351 28.696C95.9778 28.8453 95.9991 29.0053 95.9991 29.176C95.9991 29.4747 95.7431 29.8053 95.2311 30.168C94.7191 30.5307 94.0045 30.84 93.0871 31.096C92.1911 31.352 91.1671 31.48 90.0151 31.48ZM84.8951 22.552H92.9271C93.3325 22.552 93.6311 22.4987 93.8231 22.392C94.0365 22.2853 94.1431 21.9973 94.1431 21.528C94.1431 20.9307 93.9618 20.3973 93.5991 19.928C93.2365 19.4373 92.7351 19.0427 92.0951 18.744C91.4765 18.4453 90.7618 18.296 89.9511 18.296C89.0125 18.296 88.1485 18.488 87.3591 18.872C86.5911 19.2347 85.9831 19.736 85.5351 20.376C85.0871 21.016 84.8738 21.7413 84.8951 22.552ZM101.408 31.288C101.003 31.288 100.694 31.224 100.48 31.096C100.288 30.9893 100.16 30.8293 100.096 30.616C100.054 30.4027 100.032 30.1467 100.032 29.848V17.144C100.032 16.8667 100.064 16.632 100.128 16.44C100.192 16.248 100.32 16.0987 100.512 15.992C100.726 15.8853 101.035 15.832 101.44 15.832C101.76 15.832 102.006 15.8747 102.176 15.96C102.368 16.024 102.496 16.12 102.56 16.248C102.646 16.376 102.699 16.5147 102.72 16.664C102.742 16.8133 102.752 16.952 102.752 17.08L102.688 18.552C102.902 18.1893 103.168 17.848 103.488 17.528C103.808 17.1867 104.182 16.888 104.608 16.632C105.035 16.3547 105.494 16.1413 105.984 15.992C106.496 15.8427 107.04 15.768 107.616 15.768C108.555 15.768 109.419 15.9387 110.208 16.28C110.998 16.6 111.67 17.08 112.224 17.72C112.8 18.3387 113.238 19.0853 113.536 19.96C113.856 20.8347 114.016 21.8267 114.016 22.936V29.88C114.016 30.1787 113.984 30.4347 113.92 30.648C113.878 30.8613 113.75 31.0213 113.536 31.128C113.344 31.2347 113.046 31.288 112.64 31.288C112.214 31.288 111.894 31.224 111.68 31.096C111.488 30.9893 111.36 30.8293 111.296 30.616C111.232 30.4027 111.2 30.1467 111.2 29.848V22.904C111.2 22.008 111.051 21.2293 110.752 20.568C110.454 19.9067 110.006 19.3947 109.408 19.032C108.811 18.648 108.054 18.456 107.136 18.456C106.262 18.456 105.494 18.648 104.832 19.032C104.192 19.3947 103.691 19.9067 103.328 20.568C102.987 21.2293 102.816 22.008 102.816 22.904V29.88C102.816 30.1787 102.784 30.4347 102.72 30.648C102.656 30.8613 102.518 31.0213 102.304 31.128C102.112 31.2347 101.814 31.288 101.408 31.288ZM124.501 31.32C123.541 31.32 122.624 31.128 121.749 30.744C120.874 30.36 120.106 29.816 119.445 29.112C118.805 28.408 118.293 27.5867 117.909 26.648C117.546 25.688 117.365 24.6427 117.365 23.512C117.365 22.4027 117.546 21.3787 117.909 20.44C118.293 19.5013 118.805 18.6907 119.445 18.008C120.106 17.304 120.874 16.76 121.749 16.376C122.624 15.992 123.541 15.8 124.501 15.8C125.546 15.8 126.485 15.992 127.317 16.376C128.17 16.76 128.896 17.304 129.493 18.008C130.112 18.6907 130.581 19.512 130.901 20.472C131.221 21.4107 131.381 22.4347 131.381 23.544C131.402 24.6747 131.242 25.7093 130.901 26.648C130.581 27.5867 130.122 28.408 129.525 29.112C128.928 29.816 128.202 30.36 127.349 30.744C126.517 31.128 125.568 31.32 124.501 31.32ZM124.917 28.6C125.813 28.6 126.613 28.3867 127.317 27.96C128.042 27.5333 128.608 26.9467 129.013 26.2C129.44 25.432 129.653 24.5573 129.653 23.576C129.653 22.5733 129.44 21.6987 129.013 20.952C128.608 20.184 128.042 19.5867 127.317 19.16C126.613 18.7333 125.813 18.52 124.917 18.52C124.021 18.52 123.21 18.7333 122.485 19.16C121.76 19.5867 121.184 20.184 120.757 20.952C120.352 21.6987 120.149 22.5733 120.149 23.576C120.149 24.5573 120.352 25.432 120.757 26.2C121.184 26.9467 121.76 27.5333 122.485 27.96C123.232 28.3867 124.042 28.6 124.917 28.6ZM131.189 31.32C130.72 31.32 130.378 31.2347 130.165 31.064C129.952 30.8933 129.824 30.6053 129.781 30.2V10.168C129.781 9.848 129.802 9.58133 129.845 9.368C129.909 9.15466 130.037 8.99467 130.229 8.888C130.442 8.76 130.752 8.696 131.157 8.696C131.562 8.696 131.861 8.76 132.053 8.888C132.266 8.99467 132.405 9.15466 132.469 9.368C132.533 9.58133 132.565 9.83733 132.565 10.136V29.848C132.565 30.1467 132.533 30.4133 132.469 30.648C132.405 30.8613 132.277 31.0213 132.085 31.128C131.893 31.256 131.594 31.32 131.189 31.32Z" fill="#111827"/>
</g>
<rect x="12" y="40" width="30" height="4" rx="2" fill="#111827"/>
<rect x="95" y="40" width="30" height="4" rx="2" fill="#111827"/>
<defs>
<filter id="filter0_d_3_29" x="0.885132" y="8.696" width="135.68" height="30.816" filterUnits="userSpaceOnUse" color-interpolation-filters="sRGB">
<feFlood flood-opacity="0" result="BackgroundImageFix"/>
<feColorMatrix in="SourceAlpha" type="matrix" values="0 0 0 0 0 0 0 0 0 0 0 0 0 0 0 0 0 0 127 0" result="hardAlpha"/>
<feOffset dy="4"/>
<feGaussianBlur stdDeviation="2"/>
<feComposite in2="hardAlpha" operator="out"/>
<feColorMatrix type="matrix" values="0 0 0 0 0 0 0 0 0 0 0 0 0 0 0 0 0 0 0.25 0"/>
<feBlend mode="normal" in2="BackgroundImageFix" result="effect1_dropShadow_3_29"/>
<feBlend mode="normal" in="SourceGraphic" in2="effect1_dropShadow_3_29" result="shape"/>
</filter>
</defs>
</svg>
